<svg width="24" height="24" viewBox="0 0 24 24" fill="none" xmlns="http://www.w3.org/2000/svg">
<mask id="mask0_450_9558" style="mask-type:alpha" maskUnits="userSpaceOnUse" x="0" y="0" width="24" height="24">
<rect width="24" height="24" fill="#D9D9D9"/>
</mask>
<g mask="url(#mask0_450_9558)">
<path d="M9 14V7H18C19.1 7 20.0417 7.39167 20.825 8.175C21.6083 8.95833 22 9.9 22 11V14H9ZM2 17V15H22V17H2ZM2.875 13.125C2.29167 12.5417 2 11.8333 2 11C2 10.1667 2.29167 9.45833 2.875 8.875C3.45833 8.29167 4.16667 8 5 8C5.83333 8 6.54167 8.29167 7.125 8.875C7.70833 9.45833 8 10.1667 8 11C8 11.8333 7.70833 12.5417 7.125 13.125C6.54167 13.7083 5.83333 14 5 14C4.16667 14 3.45833 13.7083 2.875 13.125ZM5.7125 11.7125C5.90417 11.5208 6 11.2833 6 11C6 10.7167 5.90417 10.4792 5.7125 10.2875C5.52083 10.0958 5.28333 10 5 10C4.71667 10 4.47917 10.0958 4.2875 10.2875C4.09583 10.4792 4 10.7167 4 11C4 11.2833 4.09583 11.5208 4.2875 11.7125C4.47917 11.9042 4.71667 12 5 12C5.28333 12 5.52083 11.9042 5.7125 11.7125ZM11 12H20V11C20 10.45 19.8042 9.97917 19.4125 9.5875C19.0208 9.19583 18.55 9 18 9H11V12Z" fill="#E97451"/>
</g>
</svg>
