<svg width="326" height="183" viewBox="0 0 326 183" fill="none" xmlns="http://www.w3.org/2000/svg">
<rect width="326" height="183" rx="12" fill="#E97451"/>
<path d="M163.115 62.0771C164.824 62.1807 167.524 62.322 170.93 62.7389C175.488 62.843 178.552 62.8892 180.573 63.0582C181.587 63.143 182.403 63.2623 183.042 63.4588C183.69 63.658 184.247 63.9634 184.628 64.4787C185.17 65.2104 185.413 65.9997 185.582 66.7492C185.765 67.5668 185.838 68.1816 186.061 69.0004C186.324 69.9591 187.27 72.2453 187.439 74.8585C187.448 74.9896 187.498 75.2323 187.613 75.6845C187.719 76.0989 187.874 76.671 188.038 77.3376C188.37 78.696 188.763 80.5479 189.03 82.9917C189.337 85.8063 189.426 89.3097 189.273 91.3483C189.184 92.5462 189.229 93.5415 189.202 94.7504C189.177 95.9259 189.079 97.1755 188.69 98.6463C187.921 101.553 186.218 105.154 183.383 108.218C182.225 109.469 181.508 110.725 178.939 112.933C176.611 114.934 174.543 116.664 172.875 117.982C171.239 119.274 169.905 120.236 169.08 120.627C167.908 121.181 166.788 121.63 164.799 121.618C158.71 121.581 156.475 121.27 153.548 121.059C152.335 120.972 150.876 120.872 149.499 120.645C148.141 120.422 146.739 120.058 145.695 119.373C144.764 118.762 144.225 118.089 143.838 117.505C143.494 116.986 143.009 116.287 142.645 115.029C142.288 113.796 142.056 112.068 142.095 109.447C142.159 105.084 142.401 96.7962 142.775 92.1366C142.963 89.7928 143.199 88.3478 143.427 87.3657C143.542 86.8725 143.652 86.5027 143.75 86.2028C143.854 85.8798 143.915 85.7175 143.967 85.5299C144.404 83.9659 145.324 80.6945 148.268 77.273C148.825 76.6262 149.154 76.0937 149.496 75.5461C149.841 74.9937 150.209 74.4109 150.817 73.7906C152 72.5823 153.195 71.2732 154.313 70.0535C155.422 68.844 156.467 67.71 157.324 66.8886C157.869 66.3658 158.634 65.591 159.391 64.8876C159.908 64.4074 160.464 63.9198 161.02 63.4994C160.941 63.0602 161.184 62.6129 161.616 62.4491C161.965 62.3172 162.452 62.1261 162.973 62.079L163.044 62.0725L163.115 62.0771ZM163.234 63.9775C163.177 64.2099 163.033 64.4211 162.813 64.5562C162.165 64.9535 161.426 65.5767 160.678 66.272C159.92 66.9763 159.246 67.6635 158.631 68.2527C157.827 69.0231 156.826 70.1085 155.706 71.3309C154.595 72.5428 153.378 73.8785 152.167 75.1141C151.714 75.5762 151.437 76.0055 151.098 76.5475C150.757 77.0941 150.362 77.7386 149.702 78.5061C147.033 81.6072 146.203 84.5522 145.787 86.0385C145.722 86.2727 145.625 86.5468 145.547 86.7852C145.463 87.0464 145.369 87.3634 145.269 87.793C145.068 88.6571 144.842 90.0044 144.659 92.2879C144.29 96.8831 144.048 105.119 143.984 109.475C143.947 111.983 144.173 113.51 144.46 114.503C144.74 115.471 145.088 115.97 145.414 116.462C145.706 116.903 146.077 117.362 146.733 117.792C147.434 118.253 148.51 118.567 149.805 118.78C151.081 118.99 152.45 119.084 153.684 119.173C156.659 119.388 158.802 119.692 164.81 119.728C166.416 119.738 167.247 119.403 168.271 118.919C168.869 118.636 170.034 117.817 171.704 116.498C173.341 115.205 175.386 113.493 177.707 111.499C180.189 109.366 180.597 108.445 181.996 106.934C184.597 104.122 186.163 100.806 186.863 98.1627C187.201 96.886 187.288 95.7971 187.312 94.7089C187.335 93.6544 187.294 92.4603 187.388 91.2071C187.53 89.3098 187.449 85.9253 187.151 83.1966C186.894 80.8538 186.52 79.086 186.202 77.788C186.04 77.1265 185.899 76.6105 185.782 76.1525C185.675 75.7326 185.575 75.3179 185.553 74.9812C185.4 72.6208 184.586 70.7704 184.239 69.4988C184.01 68.6641 183.869 67.7491 183.737 67.1636C183.591 66.5104 183.419 66.0226 183.109 65.6038C183.055 65.5315 182.92 65.3989 182.488 65.266C182.047 65.1304 181.393 65.0229 180.417 64.9411C178.463 64.7777 175.473 64.7323 170.841 64.6264L170.794 64.6255L170.747 64.6199C167.533 64.225 164.962 64.0808 163.234 63.9775Z" fill="#B0E0E6"/>
<path d="M192.679 16.758C195.126 16.7962 196.69 17.0099 197.934 17.3035C198.552 17.4493 199.079 17.6128 199.575 17.7723C200.077 17.9339 200.53 18.0857 201.046 18.2301C201.911 18.4722 202.626 18.9192 203.393 19.5629C204.141 20.1906 204.998 21.0585 206.115 22.1749C207.627 23.6855 207.535 25.6137 207.537 27.5365C207.54 29.6863 206.324 30.8279 205.169 32.2289C203.177 34.6461 201.888 35.6302 200.444 36.554C199.778 36.9797 199.126 37.4482 198.395 37.9393C197.695 38.4088 196.951 38.8782 196.226 39.1974C195.695 39.4313 195.157 39.7745 194.518 40.172C193.91 40.5508 193.215 40.9751 192.475 41.2593C191.841 41.5025 191.211 41.7101 190.571 41.9266C189.926 42.1452 189.248 42.3798 188.479 42.6908C187.837 42.9505 187.14 43.1795 186.405 43.4292C185.66 43.6823 184.843 43.968 183.906 44.354C182.225 45.0462 181.127 45.5359 179.967 45.9591C178.823 46.377 177.607 47.2665 176.259 48.4622C175.404 49.2205 175.175 49.9658 174.439 51.2237C174.45 51.2037 174.416 51.2651 174.368 51.4868C174.324 51.686 174.282 51.9507 174.243 52.2768C174.165 52.9281 174.105 53.7617 174.053 54.6886C173.952 56.5032 173.882 58.7242 173.77 60.351L173.762 60.4599L173.73 60.5633C173.616 60.9354 173.541 61.5176 173.505 62.2976L173.504 62.3262L173.5 62.3548C173.476 62.5748 173.441 62.7546 173.406 62.9187C173.371 63.0833 173.338 63.232 173.303 63.4374C173.217 63.9521 172.729 64.2993 172.214 64.2127C171.7 64.1261 171.352 63.6384 171.439 63.1236C171.482 62.8704 171.525 62.6769 171.556 62.5283C171.587 62.3845 171.606 62.2814 171.619 62.1628C171.655 61.4233 171.729 60.7085 171.889 60.1286C171.998 58.509 172.061 56.4593 172.165 54.5833C172.218 53.6472 172.281 52.7641 172.367 52.0507C172.409 51.6948 172.459 51.3649 172.521 51.0834C172.577 50.8261 172.661 50.5189 172.807 50.2694C173.356 49.3313 173.849 48.0727 175.004 47.0482C176.383 45.8254 177.821 44.7302 179.319 44.1833C180.431 43.7774 181.439 43.3251 183.186 42.6059C184.179 42.1971 185.04 41.8967 185.797 41.6395C186.563 41.3791 187.191 41.173 187.77 40.939C188.591 40.6073 189.308 40.3583 189.965 40.136C190.628 39.9117 191.209 39.7204 191.797 39.4946C192.347 39.2836 192.899 38.9531 193.519 38.567C194.11 38.1995 194.782 37.7678 195.465 37.4668C196.027 37.2193 196.655 36.8313 197.341 36.3703C197.996 35.9309 198.746 35.3951 199.425 34.9609C200.708 34.1405 201.847 33.2875 203.711 31.0263C205.048 29.4043 205.649 28.8538 205.647 27.5393C205.645 25.3789 205.632 24.3638 204.78 23.5123C203.628 22.3622 202.846 21.5709 202.178 21.0101C201.529 20.4657 201.051 20.1942 200.537 20.0502C199.975 19.8931 199.471 19.7239 198.996 19.5712C198.516 19.4167 198.044 19.2724 197.499 19.1439C196.417 18.8886 194.995 18.6849 192.65 18.6483C190.263 18.611 188.292 18.6357 186.84 18.6944C186.113 18.7238 185.522 18.7614 185.078 18.8033C184.607 18.8478 184.369 18.8912 184.3 18.9122C183.563 19.135 182.627 19.4605 181.8 19.8306C181.387 20.0156 181.016 20.2053 180.716 20.3908C180.404 20.5839 180.224 20.7396 180.142 20.8403C179.321 21.8494 178.293 23.1392 177.342 24.1759C176.979 24.5717 174.755 27.3297 172.221 31.4628C171.192 33.1405 170.575 34.0815 169.987 35.5211C169.209 37.4257 167.676 40.3939 167.753 44.7952C167.792 47.0536 167.941 50.9274 168.168 53.5413C168.399 56.2035 168.61 57.4532 168.869 58.1571C169.038 58.615 169.194 59.0244 169.333 59.3911C169.471 59.7557 169.596 60.083 169.701 60.3685C169.9 60.9073 170.073 61.4022 170.127 61.7844C170.201 62.3011 169.841 62.7797 169.324 62.8532C168.808 62.9267 168.329 62.5678 168.256 62.0511C168.235 61.9064 168.144 61.6081 167.928 61.0239C167.826 60.748 167.706 60.4311 167.565 60.0612C167.426 59.693 167.268 59.277 167.096 58.8106C166.736 57.8314 166.513 56.3299 166.285 53.7047C166.053 51.0311 165.902 47.1101 165.862 44.8284C165.777 39.9611 167.502 36.6066 168.237 34.8068C168.897 33.1921 169.612 32.1013 170.609 30.4743C173.185 26.2731 175.48 23.41 175.949 22.8985C176.851 21.9149 177.831 20.685 178.675 19.6478C178.952 19.3075 179.338 19.0198 179.721 18.783C180.116 18.5387 180.568 18.3115 181.029 18.1055C181.95 17.6934 182.964 17.3415 183.752 17.1032C184.025 17.0208 184.438 16.965 184.901 16.9214C185.39 16.8752 186.016 16.8362 186.763 16.806C188.259 16.7455 190.266 16.7203 192.679 16.758Z" fill="#B0E0E6"/>
<path d="M181.785 57.4177C183.859 56.6585 186.57 56.6558 188.809 56.8279C191.06 57.001 193.056 57.3756 193.591 57.4472C194.406 57.5565 195.07 57.8602 195.649 58.1838C195.933 58.3424 196.215 58.5169 196.473 58.673C196.738 58.8337 196.991 58.9832 197.254 59.1197C198.207 59.613 199.47 60.3071 200.116 61.4816C200.416 62.0278 200.621 62.7889 200.79 63.2934C201.04 64.0412 200.658 64.6508 200.368 64.9446C199.801 65.5209 199.026 65.6999 198.469 65.8057C197.817 65.9296 197.361 65.9746 196.912 66.1398C196.49 66.295 196.081 66.3409 195.57 66.3715C195.314 66.3868 195.006 66.3993 194.642 66.4149C194.274 66.4306 193.836 66.4495 193.301 66.4795C187.771 66.7893 183.703 66.4465 182.464 66.3189C182.061 66.2998 181.535 66.2902 180.991 66.2801C180.448 66.2701 179.886 66.2594 179.458 66.2386C178.611 66.1973 178.22 66.101 177.606 66.0318C177.087 65.9734 176.714 65.5056 176.773 64.987C176.831 64.4683 177.299 64.0952 177.817 64.1536C178.667 64.2493 178.756 64.3124 179.55 64.3511C179.943 64.3702 180.472 64.3796 181.026 64.3899C181.297 64.3949 181.575 64.3999 181.84 64.4065L182.602 64.4332L182.628 64.436C183.757 64.5535 187.743 64.8983 193.195 64.5929C193.742 64.5623 194.191 64.5424 194.562 64.5265C194.937 64.5104 195.222 64.4981 195.457 64.484C195.931 64.4557 196.109 64.4211 196.259 64.3659C196.904 64.1288 197.659 64.0356 198.116 63.9487C198.556 63.8652 198.793 63.7802 198.931 63.6893C198.739 63.0991 198.631 62.7053 198.459 62.3925C198.128 61.7902 197.396 61.3215 196.385 60.7976C196.062 60.6305 195.764 60.4534 195.493 60.2891C195.215 60.1201 194.974 59.9714 194.728 59.8341C194.248 59.5657 193.821 59.3854 193.34 59.3209C192.663 59.2301 190.852 58.8808 188.664 58.7126C186.464 58.5435 184.103 58.5821 182.435 59.1926C181.114 59.676 179.677 60.2951 178.64 61.0819C177.154 62.2096 176.404 62.8098 175.497 63.7936C175.143 64.1774 174.545 64.2018 174.162 63.8481C173.778 63.4944 173.753 62.8964 174.107 62.5125C175.135 61.3969 176 60.7121 177.498 59.5756C178.774 58.608 180.437 57.9113 181.785 57.4177Z" fill="#B0E0E6"/>
<path d="M168.654 36.4269C162.227 46.6343 167.552 58.3224 171.017 62.8905H172.907C173.38 62.8905 172.907 56.747 172.907 54.3842C172.907 52.0213 175.27 47.2957 178.578 44.9329C181.886 42.5701 203.624 33.1188 204.096 32.1737C204.569 31.2286 206.459 26.9755 206.932 25.5578C207.404 24.1401 202.679 20.3598 201.261 19.4147C199.843 18.4696 191.337 17.0519 184.249 17.997C177.16 18.9421 176.688 23.6677 168.654 36.4269Z" fill="#B0E0E6"/>
<path d="M143.179 55.0924C144.721 54.9039 146.794 54.8342 149.221 54.977C150.915 55.0767 152.169 55.1418 153.14 55.2363C154.116 55.3315 154.877 55.4625 155.578 55.7218C157.164 56.3082 159.15 57.182 160.982 57.997C162.839 58.8228 164.521 59.5797 165.561 59.9666C166.308 60.2443 166.973 60.5513 167.499 60.8019C168.071 61.074 168.386 61.2309 168.553 61.2864C169.049 61.4508 169.318 61.9854 169.153 62.4808C168.989 62.9762 168.453 63.2441 167.958 63.0798C167.643 62.9753 167.153 62.7302 166.687 62.5085C166.176 62.2651 165.57 61.9862 164.902 61.7378C163.79 61.3243 162.033 60.5328 160.213 59.7238C158.37 58.904 156.441 58.0564 154.922 57.4949C154.445 57.3187 153.873 57.2066 152.957 57.1174C152.034 57.0274 150.835 56.966 149.109 56.8645C146.774 56.7271 144.817 56.7966 143.409 56.9688C142.702 57.0552 142.155 57.1644 141.778 57.277C141.588 57.3336 141.463 57.3852 141.389 57.4229C141.381 57.4269 141.375 57.4308 141.369 57.4339C140.972 57.9646 140.565 58.4025 140.23 58.7732C140.087 58.9317 139.971 59.2937 139.997 60.0524C140.008 60.4029 140.047 60.7816 140.093 61.1886C140.139 61.5825 140.194 62.0159 140.225 62.4217C140.234 62.5291 140.259 62.6839 140.835 62.9487C141.116 63.0782 141.449 63.1964 141.864 63.3456C142.263 63.4893 142.72 63.6556 143.183 63.8652C144.856 64.6243 146.914 64.7919 150.178 64.9156C152.277 64.9951 155.264 64.6444 156.629 64.3683C157.507 64.1905 158.658 63.6966 159.777 63.0466C160.039 62.8585 160.295 62.664 160.513 62.4466C160.764 62.1973 160.937 61.9567 161.477 61.3261C161.816 60.9296 162.413 60.8833 162.81 61.2228C163.206 61.5622 163.252 62.1591 162.913 62.5555C162.473 63.0691 162.166 63.468 161.847 63.7859C161.505 64.126 161.134 64.4028 160.841 64.6119L160.806 64.6368L160.769 64.659C159.548 65.3729 158.176 65.9843 157.004 66.2216C155.529 66.5201 152.388 66.8905 150.106 66.804C146.909 66.6828 144.47 66.5245 142.402 65.5866C142.017 65.4121 141.625 65.2689 141.223 65.1242C140.836 64.9849 140.417 64.8361 140.045 64.6655C139.316 64.3299 138.433 63.7531 138.341 62.5694C138.312 62.2082 138.265 61.8278 138.216 61.4037C138.169 60.9926 138.122 60.5488 138.107 60.1161C138.08 59.3087 138.147 58.2596 138.828 57.5059C139.205 57.0883 139.556 56.7119 139.899 56.2452C140.082 55.9946 140.336 55.8385 140.528 55.7403C140.738 55.6327 140.981 55.5427 141.237 55.4662C141.751 55.3127 142.411 55.1863 143.179 55.0924Z" fill="#B0E0E6"/>
<path d="M172.908 116.893C176.835 116.893 180.663 116.893 182.745 116.93C184.827 116.968 185.227 117.041 185.651 117.138L185.658 117.139L185.665 117.141C186.905 117.444 188.042 117.772 189.437 118.558C189.847 118.789 190.344 118.936 190.978 119.123C191.565 119.297 192.286 119.511 192.917 119.896C193.312 120.136 193.516 120.546 193.629 120.831C193.758 121.157 193.853 121.547 193.921 121.969C194.057 122.817 194.106 123.916 194.048 125.16C194.038 125.377 194.024 125.613 193.987 125.828C193.95 126.045 193.877 126.32 193.696 126.576C193.29 127.152 192.637 127.241 192.167 127.262C189.646 127.374 187.169 127.104 185.76 127.002C182.636 126.776 178.746 126.139 176.822 125.776C175.087 125.45 173.172 125.117 171.607 124.608C170.705 124.314 169.781 124.024 169.016 123.798C168.217 123.563 167.677 123.424 167.487 123.4C166.969 123.332 166.604 122.858 166.672 122.341C166.739 121.823 167.213 121.458 167.73 121.525C168.099 121.573 168.797 121.763 169.55 121.986C170.338 122.218 171.279 122.514 172.191 122.811C173.611 123.273 175.374 123.581 177.171 123.919C179.067 124.276 182.877 124.898 185.896 125.116C187.394 125.225 189.705 125.48 192.082 125.374C192.103 125.373 192.122 125.369 192.14 125.368C192.141 125.359 192.143 125.349 192.144 125.339C192.15 125.264 192.155 125.177 192.16 125.071C192.214 123.916 192.165 122.954 192.054 122.27C191.999 121.925 191.932 121.68 191.872 121.526C191.86 121.496 191.847 121.474 191.838 121.456C191.468 121.25 191.015 121.106 190.441 120.936C189.865 120.765 189.144 120.562 188.51 120.205C187.332 119.542 186.385 119.263 185.216 118.978V118.977C184.998 118.926 184.729 118.856 182.711 118.82C180.65 118.783 176.845 118.783 172.908 118.783C172.386 118.783 171.963 118.36 171.963 117.838C171.963 117.316 172.386 116.893 172.908 116.893Z" fill="#B0E0E6"/>
<path d="M145.099 119.386C145.288 118.9 145.834 118.658 146.321 118.846C146.808 119.035 147.05 119.583 146.861 120.069C146.86 120.072 146.851 120.1 146.842 120.162C146.831 120.226 146.823 120.312 146.819 120.418C146.81 120.632 146.822 120.902 146.857 121.206C146.929 121.82 147.092 122.515 147.337 123.114C147.612 123.786 148.113 124.47 148.714 125.135C149.314 125.796 149.956 126.38 150.497 126.888C150.992 127.352 151.57 127.784 152.345 128.327C153.108 128.862 154.067 129.509 155.244 130.361C156.669 131.394 157.632 132.268 158.842 132.897C160.462 133.739 162.943 134.173 165.32 134.624C167.057 134.953 168.423 134.884 169.969 134.66C170.033 134.65 170.075 134.629 170.133 134.556C170.208 134.462 170.279 134.315 170.351 134.107C170.519 133.621 170.451 133.199 170.209 132.713C169.936 132.169 169.515 131.671 169.004 130.998C168.357 130.146 166.704 128.815 164.908 127.72C163.75 127.014 162.102 126.292 160.444 125.619C159.089 125.069 157.997 124.509 157.08 124.034C156.146 123.549 155.448 123.182 154.798 122.951C153.925 122.68 152.892 122.369 151.944 122.099L151.937 122.097C151.516 121.974 151.265 121.892 151.015 121.81C150.519 121.648 150.247 121.115 150.409 120.619C150.571 120.122 151.104 119.852 151.6 120.013C151.843 120.092 152.071 120.166 152.461 120.281H152.462C152.95 120.42 153.459 120.57 153.958 120.719L155.388 121.156L155.423 121.167C156.227 121.452 157.061 121.894 157.951 122.356C158.859 122.827 159.886 123.353 161.155 123.867C162.813 124.54 164.59 125.313 165.892 126.107C167.742 127.235 169.643 128.714 170.509 129.856C170.929 130.408 171.524 131.117 171.899 131.867C172.304 132.675 172.515 133.635 172.138 134.725C171.973 135.201 171.528 136.344 170.242 136.531C168.562 136.775 166.974 136.861 164.969 136.481C162.728 136.056 159.9 135.577 157.97 134.574C156.598 133.86 155.355 132.775 154.136 131.893C152.972 131.05 152.058 130.435 151.26 129.875C150.474 129.324 149.803 128.828 149.204 128.266C148.694 127.787 147.977 127.138 147.312 126.404C146.65 125.672 145.983 124.797 145.587 123.829C145.268 123.048 145.069 122.183 144.98 121.426C144.935 121.046 144.917 120.678 144.929 120.347C144.941 120.034 144.983 119.686 145.099 119.386Z" fill="#B0E0E6"/>
<path d="M139.639 63.0215C140.16 62.9966 140.603 63.3992 140.628 63.9205C140.653 64.4417 140.25 64.8848 139.729 64.9099C139.023 64.9436 138.398 65.1962 137.004 66.0239C135.98 66.6327 135.645 67.1748 134.363 68.3729C133.442 69.2335 131.96 70.9447 130.244 73.2886C128.547 75.6048 126.759 78.4759 125.177 82.1787C123.586 85.8989 122.25 90.387 121.557 92.8557C120.802 95.5418 120.805 96.0573 120.684 96.7802C120.607 97.2343 120.578 97.6781 120.555 98.233C120.532 98.7808 120.515 99.4374 120.453 100.251C120.195 103.647 120.497 106.186 120.632 106.789C120.767 107.394 121.037 107.99 121.427 108.68C121.838 109.409 122.285 110.082 122.845 111.025C123.031 111.338 123.333 111.65 123.761 112.001C124.209 112.369 124.659 112.675 125.213 113.098C125.735 113.498 126.32 113.766 127.173 114.08C128.001 114.386 129.128 114.75 130.52 115.309C131.803 115.824 132.897 116.165 134.009 116.545C134.68 116.774 135.732 116.971 136.922 117.166C138.065 117.353 139.326 117.536 140.298 117.738C140.639 117.804 140.89 117.837 141.125 117.838C141.367 117.838 141.616 117.804 141.955 117.755C142.472 117.68 142.951 118.039 143.026 118.556C143.1 119.072 142.741 119.551 142.225 119.626C141.909 119.671 141.524 119.729 141.121 119.728C140.711 119.727 140.325 119.669 139.94 119.594L139.933 119.593L139.927 119.592C139.007 119.4 137.824 119.229 136.618 119.031C135.454 118.841 134.244 118.622 133.398 118.333C132.34 117.972 131.16 117.604 129.815 117.063C128.446 116.513 127.446 116.196 126.519 115.853C125.616 115.521 124.817 115.174 124.065 114.6C123.618 114.259 123.033 113.847 122.563 113.462C122.072 113.06 121.572 112.583 121.22 111.99C120.738 111.177 120.188 110.33 119.781 109.61C119.352 108.852 118.981 108.069 118.787 107.201C118.601 106.372 118.3 103.638 118.568 100.108C118.627 99.3366 118.643 98.7305 118.667 98.1545C118.691 97.5854 118.722 97.0431 118.819 96.4664C118.938 95.7603 118.95 95.1444 119.737 92.3444C120.434 89.8626 121.797 85.2753 123.439 81.4357C125.087 77.579 126.953 74.5835 128.719 72.1718C130.465 69.788 132.027 67.9695 133.073 66.9921C134.1 66.0318 134.782 65.1453 136.039 64.3986C137.446 63.5625 138.425 63.0794 139.639 63.0215Z" fill="#B0E0E6"/>
<path d="M145.792 81.9539C146.926 77.7953 156.03 68.8796 160.441 64.9416C147.209 67.777 141.255 63.9965 140.121 63.9965C138.703 63.9965 133.032 63.5239 123.109 84.3167C113.185 105.109 123.581 114.088 127.834 115.978C132.087 117.869 143.901 118.814 144.374 118.341C144.846 117.869 144.374 87.1521 145.792 81.9539Z" fill="#B0E0E6"/>
<path d="M158.078 133.936C148.154 130.155 146.737 119.286 147.209 118.814L149.572 119.759C154.298 121.649 164.6 126.375 168.002 130.155C172.255 134.881 168.002 137.716 158.078 133.936Z" fill="#B0E0E6"/>
<path d="M178.398 124.957C173.484 124.201 168.475 121.807 166.584 120.704C169.42 119.759 175.941 117.869 179.344 117.869C183.597 117.869 191.158 119.286 192.103 122.594C193.048 125.902 184.542 125.902 178.398 124.957Z" fill="#B0E0E6"/>
<path d="M141.066 62.1062C137.169 60.1578 141.066 57.3806 142.484 56.4354H154.77C155.716 56.4354 165.167 60.6885 166.112 62.1062C167.057 63.5239 160.863 62.5645 158.551 63.0513C149.572 64.9416 145.792 64.469 141.066 62.1062Z" fill="#B0E0E6"/>
<path d="M191.158 64.9416C186.432 64.9416 177.453 63.9964 176.036 63.5239C176.666 63.0513 178.115 61.9172 178.871 61.1611C179.816 60.2159 185.487 58.7982 186.905 58.3257C188.322 57.8531 195.411 59.7434 197.774 60.6885C199.664 61.4446 198.876 63.2088 198.246 63.9964C197.459 64.3115 194.938 64.9416 191.158 64.9416Z" fill="#B0E0E6"/>
<path d="M155.726 86.8152C156.949 83.5426 164.964 72.1877 170.81 68.4072C174.888 66.9893 179.534 68.4072 181.817 68.4072C184.67 68.4072 185.893 76.1794 187.931 90.0877C189.97 103.996 174.886 113.814 170.81 117.086C166.733 120.359 155.04 117.553 154.095 115.859C153.498 114.787 154.503 90.0877 155.726 86.8152Z" fill="#B0E0E6"/>
<path d="M187.522 24.47C187.756 24.0031 188.324 23.8138 188.791 24.0472L189.125 24.2143C189.591 24.4477 189.781 25.0156 189.547 25.4825C189.314 25.9492 188.747 26.1384 188.28 25.9052L187.945 25.7381C187.478 25.5047 187.289 24.9368 187.522 24.47Z" fill="#E97451"/>
<path d="M197.903 22.6094C198.425 22.6095 198.848 23.0326 198.848 23.5545C198.848 24.0764 198.425 24.4995 197.903 24.4996H197.401C196.879 24.4996 196.456 24.0765 196.456 23.5545C196.456 23.0325 196.879 22.6094 197.401 22.6094H197.903Z" fill="#E97451"/>
<path d="M201.293 162.22V150.9H204.093V158.52C205.153 158.32 206.333 158.18 207.393 158.16L207.473 160.8C206.413 160.84 205.193 160.96 204.093 161.18V169.44H201.293V162.5C199.673 163.06 197.673 163.7 195.693 164.18C193.213 164.8 191.793 163.54 192.153 161.18C192.333 159.96 192.653 158.68 192.913 157.66C192.473 157.72 192.033 157.8 191.613 157.88L191.193 155.32C193.993 154.82 197.053 154.4 199.773 154.12L200.013 156.7C197.893 156.92 195.673 157.22 193.473 157.56L195.653 157.9C195.373 158.96 195.093 160.28 194.933 161.32C194.893 161.52 195.053 161.64 195.253 161.6C196.953 161.18 198.933 160.58 200.553 160L201.293 162.22Z" fill="#B0E0E6"/>
<path d="M181.198 164.76L180.498 162.34C182.018 161.86 183.698 161.52 185.358 161.3C188.138 160.94 189.418 163.42 187.378 165.36C187.158 165.58 186.918 165.8 186.678 166.02C187.798 166.62 188.938 167.32 189.918 168.06L188.458 170.16C187.278 169.28 185.958 168.44 184.658 167.76C183.618 168.62 182.518 169.48 181.458 170.26L180.318 168.84L179.598 169.74C177.318 168.12 175.738 165.3 175.238 162.62L177.938 162.08C178.358 164.32 179.238 166.06 180.998 167.42C182.398 166.4 183.858 165.26 184.998 164.18C185.178 164.02 185.078 163.82 184.838 163.86C183.778 164 182.438 164.36 181.198 164.76ZM178.598 152.52L179.358 153.74L179.418 153.32C181.458 153.38 183.158 154.58 183.398 156.5C183.638 158.54 182.118 160.44 179.418 160.8C176.918 161.12 174.798 159.92 174.518 157.84C174.238 155.9 175.678 154.04 178.598 152.52ZM184.418 160.94V150.9H187.218V155.74C188.278 155.54 189.458 155.4 190.518 155.36L190.598 157.96C189.538 158 188.298 158.12 187.218 158.36V160.94H184.418ZM180.778 156.72C180.698 156.08 180.038 155.66 179.118 155.64L179.178 155.12C177.718 155.98 177.078 156.78 177.178 157.44C177.278 158.12 178.078 158.42 178.998 158.3C180.078 158.16 180.858 157.48 180.778 156.72Z" fill="#B0E0E6"/>
<path d="M156.957 154.68L157.977 156.08L158.037 155.56C160.317 155.6 162.017 156.78 162.277 158.62C162.597 160.96 160.737 163.04 157.757 163.38C155.377 163.66 153.317 162.46 153.017 160.48C152.697 158.34 154.317 156.22 156.957 154.68ZM163.337 169.44V150.9H166.177V169.44H163.337ZM159.617 159.04C159.517 158.3 158.737 157.92 157.737 157.9L157.817 157.24C156.377 158.26 155.617 159.22 155.737 159.98C155.837 160.64 156.617 160.92 157.537 160.82C158.757 160.68 159.737 159.9 159.617 159.04Z" fill="#B0E0E6"/>
<path d="M138.622 167.02L138.242 164.5C139.522 164.28 141.042 164.06 142.562 163.88V162.34C140.142 162.62 137.742 162.94 135.542 163.3L135.162 160.76C140.182 159.96 146.482 159.26 151.342 158.94L151.522 161.5C149.602 161.62 147.482 161.82 145.322 162.04V163.56C145.482 163.54 145.662 163.54 145.822 163.52C147.622 163.36 148.702 164.36 148.702 166.28V170.22H145.902V166.38C145.902 166.18 145.802 166.08 145.622 166.1C143.462 166.28 140.862 166.64 138.622 167.02ZM137.742 152.26L140.342 151.62C140.502 152.34 140.682 153.04 140.862 153.76C142.182 153.44 143.682 153.12 145.002 152.9L145.402 155.24C144.102 155.46 142.722 155.72 141.442 156.04C141.722 157.04 142.042 158.04 142.382 159.04L139.882 159.88C139.042 157.44 138.322 154.76 137.742 152.26ZM145.602 150.94L148.282 150.74C148.482 152.4 148.522 154.24 148.322 156.06C148.502 156.04 148.682 156.04 148.862 156.02L149.042 158.4C147.022 158.54 144.762 158.74 142.822 159.02L142.482 156.66C143.462 156.52 144.562 156.38 145.682 156.28C145.882 154.52 145.802 152.58 145.602 150.94Z" fill="#B0E0E6"/>
<path d="M129.807 157.64V150.9H132.607V169.44H129.807V160.32C128.807 160.56 127.687 160.88 126.807 161.18L126.347 159.6C124.747 161.54 122.467 163.78 120.307 165.48L118.527 163.42C120.947 161.52 123.407 159.14 124.867 157.16C125.127 156.8 124.927 156.52 124.527 156.62C123.287 156.92 121.627 157.56 120.167 158.26L119.067 155.82C120.607 155.08 122.347 154.46 124.027 154.06C127.207 153.3 128.927 155.74 127.367 158.24C128.187 158.02 129.087 157.8 129.807 157.64Z" fill="#B0E0E6"/>
</svg>
